# Blender 4.5.0
# www.blender.org
mtllib crimheart.mtl
o Icosphere
v 0.208548 0.333005 -0.291528
v -0.068710 0.236551 -0.180038
v 0.046949 0.297054 0.010242
v 0.278138 0.152847 -0.070105
v 0.305360 0.003222 -0.310044
v 0.090995 0.054955 -0.377985
v -0.170477 -0.003222 0.110295
v 0.043887 -0.054955 0.178235
v 0.203593 -0.236551 -0.019711
v 0.087934 -0.297054 -0.209991
v -0.143255 -0.152847 -0.129645
v -0.073665 -0.333005 0.091779
v 0.138337 0.370339 -0.147801
v 0.070355 0.334776 -0.259645
v -0.024631 0.313645 -0.082269
v 0.001259 0.171342 -0.310462
v 0.164227 0.228037 -0.375994
v 0.274226 0.285577 -0.195027
v 0.179241 0.264445 -0.017651
v 0.290226 0.197630 -0.336060
v 0.331131 0.091736 -0.205910
v 0.221131 0.034196 -0.386878
v -0.136431 0.049199 -0.164492
v -0.042559 -0.057540 -0.280841
v -0.084449 0.172710 0.088385
v -0.152432 0.137148 -0.023459
v 0.177442 0.057540 0.081092
v 0.041551 0.142303 0.128321
v 0.287315 -0.137148 -0.176291
v 0.271314 -0.049199 -0.035257
v 0.093332 -0.142303 -0.328070
v 0.219332 -0.172710 -0.288135
v -0.196248 -0.091736 0.006161
v -0.086248 -0.034196 0.187129
v 0.133624 -0.171342 0.110713
v 0.159514 -0.313645 -0.117480
v -0.044358 -0.264445 -0.182098
v -0.155343 -0.197630 0.136311
v -0.139343 -0.285577 -0.004722
v -0.029344 -0.228037 0.176245
v 0.064528 -0.334776 0.059896
v -0.003454 -0.370339 -0.051948
vn -0.0510 0.9603 -0.2743
vn -0.6635 0.4632 -0.5875
vn 0.5400 0.8404 0.0455
vn 0.7865 0.5601 -0.2600
vn 0.3684 0.4835 -0.7941
vn -0.7989 0.2431 -0.5501
vn -0.4384 0.7624 0.4760
vn 0.6921 0.3060 0.6538
vn 0.9776 -0.1968 -0.0747
vn -0.1050 -0.2451 -0.9638
vn -0.9069 0.3036 -0.2922
vn -0.1039 0.6056 0.7889
vn 0.8081 0.0735 0.5845
vn 0.8208 -0.4458 -0.3571
vn -0.4421 -0.2250 -0.8683
vn -0.9618 -0.0386 0.2709
vn 0.0621 -0.0378 0.9974
vn 0.6635 -0.4632 0.5875
vn 0.1952 -0.9280 -0.3174
vn -0.7604 -0.4569 -0.4616
vn -0.5400 -0.8404 -0.0455
vn -0.5811 -0.7110 -0.3959
vn -0.3071 -0.7832 -0.5407
vn 0.0510 -0.9603 0.2743
vn 0.3560 -0.9311 0.0797
vn 0.6529 -0.7095 0.2651
vn 0.1610 -0.6591 0.7346
vn 0.4621 -0.4356 0.7725
vn 0.4222 -0.1888 0.8866
vn -0.3684 -0.4835 0.7941
vn -0.3314 -0.1496 0.9316
vn -0.6634 0.0483 0.7467
vn -0.7866 -0.5601 0.2600
vn -0.9562 -0.2846 0.0690
vn -0.9334 -0.2601 -0.2472
vn -0.6921 -0.3060 -0.6538
vn -0.5020 -0.3689 -0.7822
vn -0.3018 -0.5716 -0.7630
vn 0.4384 -0.7624 -0.4760
vn 0.7415 -0.6213 -0.2532
vn 0.8197 -0.5675 0.0780
vn 0.7989 -0.2431 0.5501
vn 0.7501 -0.0584 0.6587
vn 0.5934 -0.0094 0.8049
vn 0.1050 0.2451 0.9638
vn -0.1787 0.4250 0.8874
vn -0.5515 0.3632 0.7510
vn -0.9776 0.1968 0.0747
vn -0.9653 0.1579 -0.2080
vn -0.9356 -0.0291 -0.3520
vn 0.1039 -0.6056 -0.7889
vn 0.1787 -0.4250 -0.8874
vn 0.5515 -0.3632 -0.7510
vn 0.9069 -0.3036 0.2922
vn 0.9653 -0.1579 0.2080
vn 0.9356 0.0291 0.3520
vn 0.4421 0.2250 0.8683
vn 0.5020 0.3689 0.7822
vn 0.3018 0.5716 0.7630
vn -0.8208 0.4458 0.3571
vn -0.7415 0.6213 0.2532
vn -0.8197 0.5675 -0.0780
vn -0.8081 -0.0735 -0.5845
vn -0.7501 0.0584 -0.6587
vn -0.5934 0.0094 -0.8049
vn -0.0621 0.0378 -0.9974
vn 0.3313 0.1496 -0.9316
vn 0.6634 -0.0483 -0.7467
vn 0.9618 0.0386 -0.2709
vn 0.9562 0.2846 -0.0690
vn 0.9334 0.2601 0.2472
vn 0.7604 0.4569 0.4616
vn 0.5811 0.7110 0.3959
vn 0.3071 0.7832 0.5407
vn -0.4222 0.1888 -0.8866
vn -0.4621 0.4356 -0.7725
vn -0.1610 0.6591 -0.7346
vn -0.1952 0.9280 0.3174
vn -0.3560 0.9311 -0.0797
vn -0.6529 0.7095 -0.2651
vt 0.181819 0.000000
vt 0.227273 0.078731
vt 0.136365 0.078731
vt 0.272728 0.157461
vt 0.318182 0.078731
vt 0.363637 0.157461
vt 0.909091 0.000000
vt 0.954545 0.078731
vt 0.863636 0.078731
vt 0.727273 0.000000
vt 0.772727 0.078731
vt 0.681818 0.078731
vt 0.545455 0.000000
vt 0.590909 0.078731
vt 0.500000 0.078731
vt 0.318182 0.236191
vt 0.090910 0.157461
vt 0.181819 0.157461
vt 0.136365 0.236191
vt 0.818182 0.157461
vt 0.909091 0.157461
vt 0.863636 0.236191
vt 0.636364 0.157461
vt 0.727273 0.157461
vt 0.681818 0.236191
vt 0.454546 0.157461
vt 0.545455 0.157461
vt 0.500000 0.236191
vt 0.227273 0.236191
vt 0.045455 0.236191
vt 0.772727 0.236191
vt 0.590909 0.236191
vt 0.409092 0.236191
vt 0.181819 0.314921
vt 0.272728 0.314921
vt 0.227273 0.393651
vt 0.000000 0.314921
vt 0.090910 0.314921
vt 0.045455 0.393651
vt 0.727273 0.314921
vt 0.818182 0.314921
vt 0.772727 0.393651
vt 0.545455 0.314921
vt 0.636364 0.314921
vt 0.590909 0.393651
vt 0.363637 0.314921
vt 0.454546 0.314921
vt 0.409092 0.393651
vt 0.500000 0.393651
vt 0.454546 0.472382
vt 0.681818 0.393651
vt 0.636364 0.472382
vt 0.863636 0.393651
vt 0.818182 0.472382
vt 0.909091 0.314921
vt 0.136365 0.393651
vt 0.090910 0.472382
vt 0.318182 0.393651
vt 0.272728 0.472382
vt 0.954545 0.236191
vt 1.000000 0.157461
vt 0.409092 0.078731
vt 0.363637 0.000000
s 0
f 1/1/1 14/2/1 13/3/1
f 2/4/2 14/5/2 16/6/2
f 1/7/3 13/8/3 18/9/3
f 1/10/4 18/11/4 20/12/4
f 1/13/5 20/14/5 17/15/5
f 2/4/6 16/6/6 23/16/6
f 3/17/7 15/18/7 25/19/7
f 4/20/8 19/21/8 27/22/8
f 5/23/9 21/24/9 29/25/9
f 6/26/10 22/27/10 31/28/10
f 2/4/11 23/16/11 26/29/11
f 3/17/12 25/19/12 28/30/12
f 4/20/13 27/22/13 30/31/13
f 5/23/14 29/25/14 32/32/14
f 6/26/15 31/28/15 24/33/15
f 7/34/16 33/35/16 38/36/16
f 8/37/17 34/38/17 40/39/17
f 9/40/18 35/41/18 41/42/18
f 10/43/19 36/44/19 42/45/19
f 11/46/20 37/47/20 39/48/20
f 39/48/21 42/49/21 12/50/21
f 39/48/22 37/47/22 42/49/22
f 37/47/23 10/43/23 42/49/23
f 42/45/24 41/51/24 12/52/24
f 42/45/25 36/44/25 41/51/25
f 36/44/26 9/40/26 41/51/26
f 41/42/27 40/53/27 12/54/27
f 41/42/28 35/41/28 40/53/28
f 35/41/29 8/55/29 40/53/29
f 40/39/30 38/56/30 12/57/30
f 40/39/31 34/38/31 38/56/31
f 34/38/32 7/34/32 38/56/32
f 38/36/33 39/58/33 12/59/33
f 38/36/34 33/35/34 39/58/34
f 33/35/35 11/46/35 39/58/35
f 24/33/36 37/47/36 11/46/36
f 24/33/37 31/28/37 37/47/37
f 31/28/38 10/43/38 37/47/38
f 32/32/39 36/44/39 10/43/39
f 32/32/40 29/25/40 36/44/40
f 29/25/41 9/40/41 36/44/41
f 30/31/42 35/41/42 9/40/42
f 30/31/43 27/22/43 35/41/43
f 27/22/44 8/55/44 35/41/44
f 28/30/45 34/38/45 8/37/45
f 28/30/46 25/19/46 34/38/46
f 25/19/47 7/34/47 34/38/47
f 26/29/48 33/35/48 7/34/48
f 26/29/49 23/16/49 33/35/49
f 23/16/50 11/46/50 33/35/50
f 31/28/51 32/32/51 10/43/51
f 31/28/52 22/27/52 32/32/52
f 22/27/53 5/23/53 32/32/53
f 29/25/54 30/31/54 9/40/54
f 29/25/55 21/24/55 30/31/55
f 21/24/56 4/20/56 30/31/56
f 27/22/57 28/60/57 8/55/57
f 27/22/58 19/21/58 28/60/58
f 19/21/59 3/61/59 28/60/59
f 25/19/60 26/29/60 7/34/60
f 25/19/61 15/18/61 26/29/61
f 15/18/62 2/4/62 26/29/62
f 23/16/63 24/33/63 11/46/63
f 23/16/64 16/6/64 24/33/64
f 16/6/65 6/26/65 24/33/65
f 17/15/66 22/27/66 6/26/66
f 17/15/67 20/14/67 22/27/67
f 20/14/68 5/23/68 22/27/68
f 20/12/69 21/24/69 5/23/69
f 20/12/70 18/11/70 21/24/70
f 18/11/71 4/20/71 21/24/71
f 18/9/72 19/21/72 4/20/72
f 18/9/73 13/8/73 19/21/73
f 13/8/74 3/61/74 19/21/74
f 16/6/75 17/62/75 6/26/75
f 16/6/76 14/5/76 17/62/76
f 14/5/77 1/63/77 17/62/77
f 13/3/78 15/18/78 3/17/78
f 13/3/79 14/2/79 15/18/79
f 14/2/80 2/4/80 15/18/80
o Icosphere.001
v -0.227424 0.359874 0.264760
v -0.338704 0.065562 0.170840
v -0.223329 0.012958 0.365325
v 0.008603 0.164863 0.273970
v 0.036567 0.311352 0.023026
v -0.178081 0.249977 -0.040711
v -0.171450 -0.311352 0.122004
v 0.043198 -0.249977 0.185740
v 0.203822 -0.065562 -0.025811
v 0.088446 -0.012958 -0.220295
v -0.143486 -0.164863 -0.128941
v 0.092541 -0.359874 -0.119730
v -0.253105 0.219146 0.357622
v -0.320920 0.250065 0.243307
v -0.318514 0.046152 0.302418
v -0.291917 0.185468 0.063757
v -0.226509 0.358461 0.118962
v -0.116779 0.308433 0.303926
v -0.114371 0.104521 0.363036
v -0.100343 0.394536 0.156425
v 0.038391 0.279912 0.161839
v -0.071339 0.329940 -0.023126
v -0.271584 -0.058369 0.011895
v -0.177172 0.050028 -0.112450
v -0.220205 -0.175392 0.273713
v -0.288022 -0.144472 0.159398
v 0.042289 -0.050028 0.257480
v -0.094038 -0.139317 0.311177
v 0.153139 0.144472 -0.014369
v 0.136701 0.058369 0.133134
v -0.040845 0.139317 -0.166148
v 0.085322 0.175392 -0.128684
v -0.173274 -0.279912 -0.016810
v -0.063543 -0.329940 0.168156
v 0.157034 -0.185468 0.081273
v 0.183631 -0.046152 -0.157389
v -0.020511 -0.104521 -0.218007
v -0.034540 -0.394536 -0.011396
v -0.018104 -0.308433 -0.158896
v 0.091626 -0.358461 0.026067
v 0.186037 -0.250065 -0.098278
v 0.118222 -0.219146 -0.212593
vn -0.6901 0.4821 0.5398
vn -0.9592 0.1785 -0.2192
vn -0.0362 0.5550 0.8311
vn 0.2074 0.8346 0.5103
vn -0.2719 0.9623 -0.0110
vn -0.9192 0.0071 -0.3937
vn -0.5985 -0.3584 0.7165
vn 0.5773 0.0279 0.8160
vn 0.8263 0.5516 0.1141
vn -0.2799 0.5471 -0.7889
vn -0.9484 -0.2162 -0.2319
vn -0.1398 -0.4350 0.8895
vn 0.7639 0.0705 0.6415
vn 0.7538 0.5909 -0.2873
vn -0.5086 0.2887 -0.8111
vn -0.6244 -0.7635 -0.1647
vn 0.4174 -0.6878 0.5939
vn 0.9592 -0.1785 0.2192
vn 0.5628 0.0505 -0.8250
vn -0.4851 -0.2487 -0.8383
vn 0.0362 -0.5550 -0.8311
vn -0.1908 -0.2754 -0.9422
vn 0.0093 -0.0360 -0.9993
vn 0.6901 -0.4821 -0.5398
vn 0.8333 -0.1448 -0.5335
vn 0.9871 -0.0337 -0.1564
vn 0.7603 -0.6495 0.0111
vn 0.8611 -0.4180 0.2895
vn 0.7295 -0.4423 0.5218
vn 0.2719 -0.9623 0.0110
vn 0.1574 -0.9209 0.3567
vn -0.2797 -0.9169 0.2847
vn -0.2074 -0.8346 -0.5103
vn -0.5530 -0.6913 -0.4651
vn -0.6497 -0.4377 -0.6216
vn -0.5773 -0.0279 -0.8160
vn -0.4461 0.1504 -0.8823
vn -0.1801 0.1902 -0.9651
vn 0.5985 0.3584 -0.7165
vn 0.8270 0.4160 -0.3781
vn 0.9645 0.2389 -0.1128
vn 0.9192 -0.0071 0.3937
vn 0.8173 -0.0538 0.5736
vn 0.7255 -0.2295 0.6488
vn 0.2799 -0.5471 0.7889
vn -0.0625 -0.6054 0.7935
vn -0.3656 -0.7485 0.5533
vn -0.8263 -0.5516 -0.1141
vn -0.8846 -0.3531 -0.3047
vn -0.8070 -0.2916 -0.5135
vn 0.1398 0.4350 -0.8895
vn 0.0625 0.6054 -0.7935
vn 0.3656 0.7485 -0.5533
vn 0.9484 0.2162 0.2319
vn 0.8846 0.3531 0.3047
vn 0.8070 0.2916 0.5135
vn 0.5086 -0.2887 0.8111
vn 0.4461 -0.1504 0.8823
vn 0.1801 -0.1902 0.9651
vn -0.7538 -0.5909 0.2873
vn -0.8270 -0.4160 0.3781
vn -0.9645 -0.2389 0.1128
vn -0.7639 -0.0705 -0.6415
vn -0.8173 0.0538 -0.5736
vn -0.7255 0.2295 -0.6488
vn -0.4174 0.6878 -0.5939
vn -0.1574 0.9209 -0.3567
vn 0.2797 0.9169 -0.2847
vn 0.6244 0.7635 0.1647
vn 0.5530 0.6913 0.4651
vn 0.6497 0.4377 0.6216
vn 0.4851 0.2487 0.8383
vn 0.1908 0.2754 0.9422
vn -0.0093 0.0360 0.9993
vn -0.7295 0.4423 -0.5218
vn -0.8611 0.4180 -0.2895
vn -0.7603 0.6495 -0.0111
vn -0.5628 -0.0505 0.8250
vn -0.8333 0.1448 0.5335
vn -0.9871 0.0337 0.1564
vt 0.181819 0.000000
vt 0.227273 0.078731
vt 0.136365 0.078731
vt 0.272728 0.157461
vt 0.318182 0.078731
vt 0.363637 0.157461
vt 0.909091 0.000000
vt 0.954545 0.078731
vt 0.863636 0.078731
vt 0.727273 0.000000
vt 0.772727 0.078731
vt 0.681818 0.078731
vt 0.545455 0.000000
vt 0.590909 0.078731
vt 0.500000 0.078731
vt 0.318182 0.236191
vt 0.090910 0.157461
vt 0.181819 0.157461
vt 0.136365 0.236191
vt 0.818182 0.157461
vt 0.909091 0.157461
vt 0.863636 0.236191
vt 0.636364 0.157461
vt 0.727273 0.157461
vt 0.681818 0.236191
vt 0.454546 0.157461
vt 0.545455 0.157461
vt 0.500000 0.236191
vt 0.227273 0.236191
vt 0.045455 0.236191
vt 0.772727 0.236191
vt 0.590909 0.236191
vt 0.409092 0.236191
vt 0.181819 0.314921
vt 0.272728 0.314921
vt 0.227273 0.393651
vt 0.000000 0.314921
vt 0.090910 0.314921
vt 0.045455 0.393651
vt 0.727273 0.314921
vt 0.818182 0.314921
vt 0.772727 0.393651
vt 0.545455 0.314921
vt 0.636364 0.314921
vt 0.590909 0.393651
vt 0.363637 0.314921
vt 0.454546 0.314921
vt 0.409092 0.393651
vt 0.500000 0.393651
vt 0.454546 0.472382
vt 0.681818 0.393651
vt 0.636364 0.472382
vt 0.863636 0.393651
vt 0.818182 0.472382
vt 0.909091 0.314921
vt 0.136365 0.393651
vt 0.090910 0.472382
vt 0.318182 0.393651
vt 0.272728 0.472382
vt 0.954545 0.236191
vt 1.000000 0.157461
vt 0.409092 0.078731
vt 0.363637 0.000000
s 0
f 43/64/81 56/65/81 55/66/81
f 44/67/82 56/68/82 58/69/82
f 43/70/83 55/71/83 60/72/83
f 43/73/84 60/74/84 62/75/84
f 43/76/85 62/77/85 59/78/85
f 44/67/86 58/69/86 65/79/86
f 45/80/87 57/81/87 67/82/87
f 46/83/88 61/84/88 69/85/88
f 47/86/89 63/87/89 71/88/89
f 48/89/90 64/90/90 73/91/90
f 44/67/91 65/79/91 68/92/91
f 45/80/92 67/82/92 70/93/92
f 46/83/93 69/85/93 72/94/93
f 47/86/94 71/88/94 74/95/94
f 48/89/95 73/91/95 66/96/95
f 49/97/96 75/98/96 80/99/96
f 50/100/97 76/101/97 82/102/97
f 51/103/98 77/104/98 83/105/98
f 52/106/99 78/107/99 84/108/99
f 53/109/100 79/110/100 81/111/100
f 81/111/101 84/112/101 54/113/101
f 81/111/102 79/110/102 84/112/102
f 79/110/103 52/106/103 84/112/103
f 84/108/104 83/114/104 54/115/104
f 84/108/105 78/107/105 83/114/105
f 78/107/106 51/103/106 83/114/106
f 83/105/107 82/116/107 54/117/107
f 83/105/108 77/104/108 82/116/108
f 77/104/109 50/118/109 82/116/109
f 82/102/110 80/119/110 54/120/110
f 82/102/111 76/101/111 80/119/111
f 76/101/112 49/97/112 80/119/112
f 80/99/113 81/121/113 54/122/113
f 80/99/114 75/98/114 81/121/114
f 75/98/115 53/109/115 81/121/115
f 66/96/116 79/110/116 53/109/116
f 66/96/117 73/91/117 79/110/117
f 73/91/118 52/106/118 79/110/118
f 74/95/119 78/107/119 52/106/119
f 74/95/120 71/88/120 78/107/120
f 71/88/121 51/103/121 78/107/121
f 72/94/122 77/104/122 51/103/122
f 72/94/123 69/85/123 77/104/123
f 69/85/124 50/118/124 77/104/124
f 70/93/125 76/101/125 50/100/125
f 70/93/126 67/82/126 76/101/126
f 67/82/127 49/97/127 76/101/127
f 68/92/128 75/98/128 49/97/128
f 68/92/129 65/79/129 75/98/129
f 65/79/130 53/109/130 75/98/130
f 73/91/131 74/95/131 52/106/131
f 73/91/132 64/90/132 74/95/132
f 64/90/133 47/86/133 74/95/133
f 71/88/134 72/94/134 51/103/134
f 71/88/135 63/87/135 72/94/135
f 63/87/136 46/83/136 72/94/136
f 69/85/137 70/123/137 50/118/137
f 69/85/138 61/84/138 70/123/138
f 61/84/139 45/124/139 70/123/139
f 67/82/140 68/92/140 49/97/140
f 67/82/141 57/81/141 68/92/141
f 57/81/142 44/67/142 68/92/142
f 65/79/143 66/96/143 53/109/143
f 65/79/144 58/69/144 66/96/144
f 58/69/145 48/89/145 66/96/145
f 59/78/146 64/90/146 48/89/146
f 59/78/147 62/77/147 64/90/147
f 62/77/148 47/86/148 64/90/148
f 62/75/149 63/87/149 47/86/149
f 62/75/150 60/74/150 63/87/150
f 60/74/151 46/83/151 63/87/151
f 60/72/152 61/84/152 46/83/152
f 60/72/153 55/71/153 61/84/153
f 55/71/154 45/124/154 61/84/154
f 58/69/155 59/125/155 48/89/155
f 58/69/156 56/68/156 59/125/156
f 56/68/157 43/126/157 59/125/157
f 55/66/158 57/81/158 45/80/158
f 55/66/159 56/65/159 57/81/159
f 56/65/160 44/67/160 57/81/160
